<svg width="323" height="321" viewBox="0 0 323 321" fill="none" xmlns="http://www.w3.org/2000/svg">
<path d="M211.109 59.8327C217.457 59.8327 223.446 62.7733 227.328 67.7955L289.493 148.223C295.2 155.606 295.2 165.912 289.493 173.295L227.328 253.723C223.446 258.745 217.457 261.686 211.109 261.686L114.549 261.686C108.286 261.686 102.366 258.822 98.478 253.911L34.8001 173.484C28.8969 166.028 28.8969 155.491 34.8001 148.035L98.478 67.6071C102.366 62.6963 108.286 59.8327 114.549 59.8327L211.109 59.8327Z" fill="#00985F"/>
<path d="M84.1369 143.485C83.6859 143.854 83.3579 144.305 83.1529 144.633C82.702 145.453 82.538 146.519 82.538 147.749V172.675C82.538 173.905 82.497 174.766 82.9479 175.463C83.1529 175.914 83.7269 176.447 83.9729 176.611H74.4204C75.0354 176.201 75.6503 175.34 75.7323 175.135C76.0193 174.561 76.1423 173.618 76.1423 172.675V147.831C76.1423 146.56 76.2653 145.289 75.7733 144.551C75.6094 144.264 75.2814 143.854 74.9124 143.485H84.1369ZM109.828 143.362C109.09 143.772 108.557 144.305 108.147 144.756C107.082 146.15 107.041 148.159 107.041 150.331V178.046L89.9445 148.528V169.6C89.9445 171.691 89.9855 173.864 90.6824 174.889C91.1744 175.668 91.5434 176.119 92.2813 176.652H85.6397C86.3777 176.119 86.9106 175.545 87.2796 174.889C88.0586 173.741 88.2226 172.183 88.2226 170.42V149.184C88.2226 146.929 88.3046 145.945 87.5666 144.879C87.1976 144.387 86.6237 143.772 85.8447 143.362H95.3972L105.114 160.745V148.405C105.114 147.093 105.196 146.068 104.581 145.043C104.458 144.838 103.515 143.772 102.572 143.362H109.828ZM141.177 152.504C141.259 157.916 135.847 161.565 130.764 161.565H126.254V172.88C126.254 173.659 126.213 174.192 126.5 174.93C126.787 175.709 127.197 176.16 127.894 176.611H118.218C118.833 176.201 119.202 175.832 119.53 175.176C120.063 174.233 119.981 173.823 119.981 172.675V148.159C119.981 147.503 120.063 146.519 119.612 145.699C119.243 144.92 118.792 144.51 118.054 144.059C119.366 143.526 124.942 142.911 129.001 142.952C136.462 143.034 141.095 146.478 141.177 152.504ZM134.74 152.586C134.74 148.405 133.346 144.182 128.878 144.182C127.361 144.223 126.254 145.453 126.254 146.888V159.679C127.197 160.048 127.812 160.13 128.837 160.089C132.772 159.966 134.74 156.645 134.74 152.586ZM166.399 143.403C165.907 143.772 165.579 144.018 165.251 144.551C164.308 145.822 164.062 148.282 164.062 149.061L164.431 167.92C164.513 173.905 161.397 177.103 153.731 177.144C147.294 177.144 143.112 174.848 143.112 167.428V147.052C143.112 146.683 143.235 145.535 142.866 144.715C142.661 144.141 142.456 143.854 142.005 143.403H151.886C151.271 143.895 150.902 144.305 150.574 144.961C150.246 145.576 150.123 146.929 150.123 148.159L150.082 168.166C150.082 172.511 151.968 174.643 155.985 174.561C160.536 174.479 163.119 172.757 162.955 167.1L162.504 150.577C162.422 147.462 162.299 146.273 161.52 145.289C161.397 145.125 160.29 143.895 159.265 143.403H166.399ZM190.902 166.772C191.066 172.839 186.228 176.857 178.971 176.939C176.922 176.939 168.312 176.652 167.082 176.119C167.738 175.832 168.107 175.504 168.558 174.93C169.173 174.11 169.255 172.839 169.255 172.347V147.995C169.255 147.093 169.378 146.478 169.009 145.658C168.681 144.961 168.312 144.592 167.656 144.182C169.296 143.608 173.888 143.608 177.865 143.362C182.989 143.075 189.549 145.043 189.467 150.905C189.385 153.98 186.884 156.604 183.563 157.342C188.032 158.613 190.779 162.18 190.902 166.772ZM183.358 150.987C183.358 147.503 181.349 144.633 178.766 144.633C177.209 144.674 175.774 145.453 175.774 147.257V156.645L176.676 156.686C180.242 156.809 183.358 156.112 183.358 150.987ZM184.178 166.772C183.973 159.556 181.021 158.736 177.865 158.162C176.84 157.957 176.471 158.121 175.651 158.326V172.511C175.651 174.52 176.717 175.627 178.848 175.463C183.481 175.176 184.26 170.748 184.178 166.772ZM214.391 166.608C214.391 166.69 212.587 170.543 211.644 173.167C210.824 175.299 210.414 176.57 209.8 178.743C209.472 177.923 208.939 177.349 208.324 176.98C207.709 176.611 206.766 176.611 205.782 176.611H191.965C192.744 176.201 193.482 175.135 193.564 174.93C193.851 174.397 193.892 173.413 193.892 172.511V147.38C193.892 146.314 193.892 145.453 193.4 144.715C193.236 144.469 192.703 143.772 192.129 143.362H202.502C202.01 143.69 201.6 144.1 201.395 144.428C200.862 145.248 200.944 146.396 200.944 147.667V173.536C200.944 174.766 201.518 175.094 202.379 175.135C207.381 175.381 214.473 166.854 214.391 166.608ZM225.437 143.485C224.986 143.854 224.658 144.305 224.453 144.633C224.002 145.453 223.838 146.519 223.838 147.749V172.675C223.838 173.905 223.797 174.766 224.248 175.463C224.453 175.914 225.027 176.447 225.273 176.611H215.72C216.335 176.201 216.95 175.34 217.032 175.135C217.319 174.561 217.442 173.618 217.442 172.675V147.831C217.442 146.56 217.565 145.289 217.073 144.551C216.909 144.264 216.581 143.854 216.212 143.485H225.437ZM250.677 167.674C249.324 173.208 245.265 177.144 239.28 177.021C232.269 176.939 227.103 168.944 227.021 160.95C226.939 153.816 230.547 147.052 235.344 144.428C239.034 142.419 244.487 142.788 248.504 145.084C247.684 146.437 247.233 147.298 246.495 148.733C245.798 150.127 245.347 150.946 244.732 152.34C244.732 152.299 242.232 145.33 238.501 145.084C233.786 144.756 232.72 150.741 232.556 155.702C232.351 163.287 236.902 171.076 243.585 170.953C246.167 170.912 248.545 169.805 250.677 167.674Z" fill="white"/>
</svg>
